<?xml version="1.0" encoding="utf-8"?>
<!-- Generator: Adobe Illustrator 25.0.1, SVG Export Plug-In . SVG Version: 6.00 Build 0)  -->
<svg version="1.1" id="Layer_1" xmlns="http://www.w3.org/2000/svg" xmlns:xlink="http://www.w3.org/1999/xlink" x="0px" y="0px"
	 viewBox="0 0 283 282" style="enable-background:new 0 0 283 282;" xml:space="preserve">
<style type="text/css">
	.st0{fill:#F04393;}
</style>
<g transform="translate(0.000000,282.000000) scale(0.100000,-0.100000)">
	<path class="st0" d="M1235,2809c-470-63-889-367-1089-790C44,1804,15,1669,15,1410c0-270,30-404,145-635C323,446,625,186,980,70
		c157-51,247-64,440-64c195,0,303,18,467,75c478,169,829,586,919,1091c22,123,22,353,0,476c-102,575-533,1021-1104,1142
		C1590,2814,1345,2824,1235,2809z M1013,2260c76-29,130-79,169-158l33-66v-174v-173l315,3c303,4,317,5,375,27c73,29,149,101,164,158
		c40,142-23,241-146,231c-97-8-133-65-133-207v-90l-53-6c-29-4-66-5-82-3l-30,3l1,117c0,111,2,120,33,183c117,238,456,230,563-13
		c42-95,30-240-27-338c-37-62-112-131-180-165c-123-60-134-62-567-66l-398-5v237c0,254-4,278-54,324c-18,18-41,26-79,29
		c-65,5-106-13-136-61c-20-33-21-47-21-339v-305l-41-29c-23-15-61-51-85-79l-45-50l3,400c3,393,3,401,26,450c38,82,115,149,202,176
		C868,2285,958,2280,1013,2260z M2248,1085c-3-292-4-313-24-356c-52-111-150-179-269-187c-132-8-237,54-297,175c-33,67-33,68-37,241
		l-3,173l-312-3c-300-3-313-4-371-27c-75-30-148-100-164-156c-40-144,24-245,148-233c95,9,131,66,131,207v90l53,6c29,4,66,5,82,3
		l30-3l-1-117c-1-111-3-121-33-182c-59-119-165-182-296-174c-207,14-335,205-281,418c39,150,140,250,311,307l80,27l398,4l397,3v-236
		c0-254,4-278,54-324c18-18,41-26,79-29c65-5,106,13,136,61c20,33,21,47,21,339v305l45,32c25,18,62,53,83,77l37,45l3-88
		C2250,1435,2250,1256,2248,1085z"/>
</g>
</svg>
